<?xml version="1.0" encoding="utf-8"?>
<!-- Generator: Adobe Illustrator 21.0.0, SVG Export Plug-In . SVG Version: 6.00 Build 0)  -->
<svg version="1.1" id="artwork" xmlns="http://www.w3.org/2000/svg" xmlns:xlink="http://www.w3.org/1999/xlink" x="0px" y="0px"
	 viewBox="0 0 391.8 56" style="enable-background:new 0 0 391.8 56;" xml:space="preserve">
<style type="text/css">
	.st0{fill:url(#SVGID_1_);}
	.st1{fill:#FFFFFF;}
	.st2{fill:#898B8D;}
</style>
<title>logo</title>
<g>
	<linearGradient id="SVGID_1_" gradientUnits="userSpaceOnUse" x1="0.8098" y1="27.7879" x2="166.6466" y2="27.7879">
		<stop  offset="0" style="stop-color:#13BDCE"/>
		<stop  offset="0.3892" style="stop-color:#0A99C5"/>
		<stop  offset="0.7784" style="stop-color:#037CBE"/>
		<stop  offset="1" style="stop-color:#0071BB"/>
	</linearGradient>
	<polygon class="st0" points="166.7,13.2 166.7,0 0,0 0,55.6 166.7,55.6 166.7,42.4 146.7,42.4 146.7,13.2 	"/>
	<g>
		<rect x="146.7" y="13.2" class="st1" width="20" height="29.2"/>
		<path class="st1" d="M37.5,15.8c-2-1.8-4.9-2.6-8.6-2.6H16.5v29.2h6.6V34h5.8c3.7,0,6.6-0.9,8.6-2.8c2-1.9,3.1-4.5,3.1-7.9
			C40.6,20.1,39.5,17.6,37.5,15.8z M32.8,27.3c-1,0.8-2.4,1.3-4.3,1.3h-5.5v-9.9h5.5c1.9,0,3.3,0.4,4.3,1.2c1,0.8,1.5,2,1.5,3.7
			C34.3,25.2,33.8,26.4,32.8,27.3z"/>
		<polygon class="st1" points="66.7,25.4 53.4,25.4 53.4,13.2 46.9,13.2 46.9,42.4 53.4,42.4 53.4,30.9 66.7,30.9 66.7,42.4 
			73.3,42.4 73.3,13.2 66.7,13.2 		"/>
		<path class="st1" d="M91.7,13.2L79,42.4h6.8l2.3-5.7h13.5l2.3,5.7h7L98.5,13.2H91.7z M90.2,31.4l4.6-11.3l4.6,11.3H90.2z"/>
		<path class="st1" d="M135.1,26.6c-1.3-0.6-2.9-1.2-4.9-1.8c-2-0.6-3.5-1.1-4.4-1.7c-1-0.5-1.4-1.3-1.4-2.4c0-0.8,0.3-1.4,1-1.8
			c0.7-0.4,1.6-0.6,2.7-0.6c1.2,0,2.6,0.3,4.3,0.8c1.7,0.5,3.3,1.3,4.8,2.2l2.5-5.5c-1.5-1-3.2-1.8-5.2-2.3
			c-1.9-0.6-3.9-0.9-5.9-0.9c-2.3,0-4.2,0.4-5.9,1.1c-1.7,0.7-3,1.7-4,3c-0.9,1.3-1.4,2.9-1.4,4.6c0,1.9,0.5,3.4,1.4,4.5
			c0.9,1.1,2,2,3.3,2.5c1.3,0.6,2.9,1.1,4.9,1.7c1.4,0.4,2.5,0.7,3.3,1c0.8,0.3,1.4,0.7,2,1.2c0.5,0.5,0.8,1.1,0.8,1.9
			c0,0.9-0.4,1.7-1.1,2.2c-0.8,0.5-1.8,0.8-3.2,0.8c-1.6,0-3.3-0.4-5.3-1.2c-1.9-0.8-3.6-1.9-5.1-3.2l-2.6,5.4
			c1.7,1.4,3.6,2.6,5.9,3.4c2.3,0.8,4.6,1.3,7,1.3c2.2,0,4.2-0.3,5.9-1c1.7-0.7,3.1-1.7,4.1-3.1c1-1.3,1.5-3,1.5-4.8
			c0-1.9-0.5-3.5-1.4-4.6C137.5,28,136.4,27.2,135.1,26.6z"/>
	</g>
	<g>
		<rect x="153.3" y="18.7" class="st2" width="13.4" height="6.3"/>
		<rect x="153.3" y="30.5" class="st2" width="13.4" height="6.5"/>
		<path class="st2" d="M176.6,20.3c0-3.1,2.8-4.9,6.1-4.9c2.7,0,4.6,1.2,5.6,1.9c0.5,0.3,1.1,0.3,1.4-0.3l0.4-0.7
			c0.3-0.5,0.2-1-0.2-1.4c-1.1-0.8-3.6-2.3-7.1-2.3c-5.1,0-9.1,3-9.1,7.8c0,9.1,14.5,7.3,14.5,14.7c0,3-2.4,5-5.9,5
			c-3.3,0-5.7-1.7-6.7-2.5c-0.6-0.4-1-0.4-1.4,0.1l-0.5,0.6c-0.4,0.6-0.3,1,0.1,1.5c1.2,1,4.3,3.1,8.5,3.1c5.5,0,8.9-3.5,8.9-8
			C191.1,25.5,176.6,27.3,176.6,20.3z"/>
		<path class="st2" d="M221.1,37.1c-0.4-0.5-0.9-0.5-1.4-0.1c-1.3,1-4.3,3.2-8.7,3.2c-7.2,0-11.8-5.7-11.8-12.6
			c0-6.9,4.6-12.2,11.7-12.2c4,0,6.8,1.7,8.1,2.6c0.5,0.4,1,0.3,1.4-0.2l0.4-0.5c0.3-0.5,0.3-1-0.2-1.5c-1.3-1-4.6-3.1-9.8-3.1
			c-8.6,0-14.6,6.4-14.6,14.9c0,8.5,5.9,15.3,14.7,15.3c5.5,0,9.1-2.7,10.4-3.8c0.5-0.5,0.5-1,0.1-1.5L221.1,37.1z"/>
		<path class="st2" d="M230.4,13.2h-0.9c-0.7,0-1,0.4-1,1v27.1c0,0.7,0.3,1,1,1h0.9c0.6,0,1-0.4,1-1V14.2
			C231.4,13.5,231,13.2,230.4,13.2z"/>
		<path class="st2" d="M256.7,39.8h-13.3V29h10c0.7,0,1-0.4,1-1v-0.5c0-0.7-0.4-1-1-1h-10V15.7h12.5c0.7,0,1-0.4,1-1v-0.5
			c0-0.7-0.4-1-1-1h-14.4c-0.7,0-1,0.4-1,1v27.1c0,0.7,0.3,1,1,1h15.1c0.7,0,1-0.4,1-1v-0.5C257.7,40.2,257.3,39.8,256.7,39.8z"/>
		<path class="st2" d="M286.2,13.2h-0.8c-0.7,0-1,0.4-1,1v20c0,1.5,0.2,3.9,0.2,3.9h-0.1c0,0-1.4-2.5-2.4-3.9l-14.4-20.4
			c-0.3-0.5-0.7-0.7-1.2-0.7h-1c-0.7,0-1,0.4-1,1v27.1c0,0.7,0.3,1,1,1h0.9c0.6,0,1-0.4,1-1v-20c0-1.5-0.2-3.9-0.2-3.9h0.1
			c0,0,1.4,2.5,2.4,3.9L284,41.7c0.3,0.5,0.7,0.7,1.2,0.7h1c0.7,0,1-0.4,1-1V14.2C287.2,13.5,286.9,13.2,286.2,13.2z"/>
		<path class="st2" d="M315.3,13.2h-21.7c-0.7,0-1,0.4-1,1v0.5c0,0.7,0.4,1,1,1h9.4v25.6c0,0.7,0.4,1,1,1h0.8c0.7,0,1-0.4,1-1V15.7
			h9.4c0.7,0,1-0.4,1-1v-0.5C316.3,13.5,316,13.2,315.3,13.2z"/>
		<path class="st2" d="M324.4,13.2h-0.9c-0.7,0-1,0.4-1,1v27.1c0,0.7,0.3,1,1,1h0.9c0.6,0,1-0.4,1-1V14.2
			C325.4,13.5,325,13.2,324.4,13.2z"/>
		<path class="st2" d="M348,13.2h-13.3c-0.7,0-1,0.4-1,1v27.1c0,0.7,0.3,1,1,1h0.9c0.6,0,1-0.4,1-1v-12h9.7c0.7,0,1-0.4,1-1v-0.5
			c0-0.7-0.3-1-1-1h-9.7v-11H348c0.7,0,1-0.4,1-1v-0.5C349,13.5,348.6,13.2,348,13.2z"/>
		<path class="st2" d="M358,13.2h-0.9c-0.7,0-1,0.4-1,1v27.1c0,0.7,0.3,1,1,1h0.9c0.6,0,1-0.4,1-1V14.2
			C359,13.5,358.7,13.2,358,13.2z"/>
		<path class="st2" d="M391.5,37.6l-0.4-0.5c-0.4-0.5-0.9-0.5-1.4-0.1c-1.3,1-4.3,3.2-8.7,3.2c-7.2,0-11.8-5.7-11.8-12.6
			c0-6.9,4.6-12.2,11.7-12.2c4,0,6.8,1.7,8.1,2.6c0.5,0.4,1,0.3,1.4-0.2l0.4-0.5c0.3-0.5,0.3-1-0.2-1.5c-1.3-1-4.6-3.1-9.8-3.1
			c-8.6,0-14.6,6.4-14.6,14.9c0,8.5,5.9,15.3,14.7,15.3c5.5,0,9.1-2.7,10.4-3.8C391.9,38.6,391.9,38.1,391.5,37.6z"/>
	</g>
</g>
</svg>
